<?xml version="1.0" standalone="no"?>
<!DOCTYPE svg PUBLIC "-//W3C//DTD SVG 20010904//EN"
 "http://www.w3.org/TR/2001/REC-SVG-20010904/DTD/svg10.dtd">
<svg version="1.0" xmlns="http://www.w3.org/2000/svg"
 width="178.000000pt" height="49.000000pt" viewBox="0 0 178.000000 49.000000"
 preserveAspectRatio="xMidYMid meet">

<g transform="translate(0.000000,49.000000) scale(0.100000,-0.100000)"
fill="#74d2e7" stroke="none">
<path d="M32 240 l3 -231 855 1 855 0 3 230 2 230 -860 0 -860 0 2 -230z m498
-5 l0 -215 -240 0 -240 0 0 215 0 215 240 0 240 0 0 -215z m213 52 l27 28 0
-65 0 -64 -45 44 -45 44 0 -42 c0 -23 -4 -42 -10 -42 -6 0 -10 27 -10 62 l0
62 28 -27 28 -27 27 27z m860 -50 c-10 -55 -23 -54 -23 2 0 46 2 52 15 41 9
-8 12 -22 8 -43z m-742 23 c5 0 9 -13 9 -29 0 -26 -14 -41 -40 -41 -11 0 -40
29 -40 40 0 16 33 41 47 36 8 -3 19 -6 24 -6z m90 -16 c1 -8 2 -20 3 -26 5
-28 -9 -31 -14 -4 -6 37 -30 47 -30 12 0 -13 -4 -28 -10 -31 -6 -4 -10 8 -10
29 0 25 5 36 18 38 24 6 42 -2 43 -18z m90 16 c16 0 10 -58 -7 -64 -23 -9 -51
1 -58 21 -8 20 23 56 42 48 7 -3 18 -5 23 -5z m100 0 c15 0 10 -76 -6 -90 -19
-16 -50 -9 -50 12 0 9 -4 20 -8 24 -23 23 10 70 41 59 8 -3 18 -5 23 -5z m89
-5 c10 -12 10 -21 2 -40 -12 -26 -20 -29 -46 -19 -30 12 -13 74 20 74 6 0 17
-7 24 -15z m128 2 c6 -5 11 -23 11 -40 l-1 -32 -7 30 c-3 17 -13 30 -21 30 -8
0 -17 -13 -21 -30 l-6 -30 -4 30 c-2 18 -10 30 -19 30 -8 0 -18 -13 -21 -30
-7 -29 -7 -29 -8 7 -1 21 4 38 11 40 20 7 72 3 86 -5z m96 -3 c19 -18 19 -20
6 -45 -14 -25 -46 -25 -60 0 -5 11 -10 22 -10 25 0 8 31 36 40 36 5 0 16 -7
24 -16z m84 4 c7 -7 11 -26 11 -43 l-1 -30 -7 30 c-3 17 -13 30 -21 30 -8 0
-18 -13 -21 -30 -7 -29 -7 -29 -8 7 -1 32 7 44 30 47 3 1 10 -4 17 -11z"/>
<path d="M184 350 c-45 -18 -54 -47 -52 -160 l1 -105 7 105 c8 122 12 134 50
150 23 9 34 9 59 -4 17 -9 32 -18 32 -19 1 -1 5 -54 9 -117 l7 -115 1 112 c2
108 3 112 28 132 34 26 54 26 88 0 25 -20 26 -25 28 -132 l2 -112 4 100 c4
126 0 142 -43 162 -33 16 -37 16 -70 0 -19 -9 -35 -22 -35 -28 0 -6 -14 1 -31
15 -32 27 -50 30 -85 16z"/>
<path d="M741 266 c-11 -13 -11 -20 -3 -28 15 -15 24 -5 20 23 -3 21 -4 21
-17 5z"/>
<path d="M810 230 c0 -13 7 -20 20 -20 13 0 20 7 20 20 0 13 -7 20 -20 20 -13
0 -20 -7 -20 -20z"/>
<path d="M995 240 c-8 -14 3 -30 21 -30 8 0 14 9 14 20 0 21 -24 28 -35 10z"/>
<path d="M1090 231 c0 -15 6 -21 21 -21 25 0 22 33 -4 38 -12 2 -17 -3 -17
-17z"/>
<path d="M1106 190 c-11 -3 -15 -9 -10 -13 10 -6 42 9 34 16 -3 3 -14 1 -24
-3z"/>
<path d="M1198 243 c7 -3 16 -2 19 1 4 3 -2 6 -13 5 -11 0 -14 -3 -6 -6z"/>
<path d="M1198 213 c7 -3 16 -2 19 1 4 3 -2 6 -13 5 -11 0 -14 -3 -6 -6z"/>
<path d="M1418 243 c6 -2 18 -2 25 0 6 3 1 5 -13 5 -14 0 -19 -2 -12 -5z"/>
<path d="M1418 213 c6 -2 18 -2 25 0 6 3 1 5 -13 5 -14 0 -19 -2 -12 -5z"/>
</g>
</svg>
